<svg xmlns="http://www.w3.org/2000/svg" width="24" height="25" viewBox="0 0 24 25" fill="none">
  <g clip-path="url(#clip0_2321_521)">
    <g filter="url(#filter0_d_2321_521)">
      <path d="M5.14 2.79846C6.72 4.00846 10.72 7.82146 12.116 12.7515C13.512 17.6815 12.116 22.7985 12.116 22.7985C9.367 19.6345 6.223 17.5985 5.936 17.4165L5.916 17.4035C5.45 14.6125 3 9.58846 3 9.58846C6.536 10.4555 7.93 13.8675 7.93 13.8675C7.558 9.49646 5.14 2.79846 5.14 2.79846ZM20.116 8.70546C20.116 8.70546 18.873 11.1765 18.302 13.3095C18.067 14.1875 18.017 15.5095 18.012 16.3675V16.6495C18.015 16.9965 18.022 17.2175 18.022 17.2175C18.022 17.2175 16.284 19.6145 14.642 20.8955C14.73 19.2945 14.704 17.4605 14.434 15.5615C15.362 13.5385 17.28 10.1075 20.116 8.70546ZM17.992 3.37446C17.992 3.37446 15.667 6.42646 15.156 9.40346C15.046 10.0395 14.955 10.5975 14.872 11.0985C14.493 11.6825 14.142 12.2645 13.822 12.8315C13.789 12.7065 13.762 12.5815 13.727 12.4565C13.425 11.3865 13.023 10.3615 12.567 9.37646C12.62 9.23046 12.67 9.08646 12.737 8.93846C12.737 8.93846 14.551 5.15846 17.992 3.37446Z" fill="white"/>
    </g>
  </g>
  <defs>
    <filter id="filter0_d_2321_521" x="-1" y="2.79846" width="25.116" height="28" filterUnits="userSpaceOnUse" color-interpolation-filters="sRGB">
      <feFlood flood-opacity="0" result="BackgroundImageFix"/>
      <feColorMatrix in="SourceAlpha" type="matrix" values="0 0 0 0 0 0 0 0 0 0 0 0 0 0 0 0 0 0 127 0" result="hardAlpha"/>
      <feOffset dy="4"/>
      <feGaussianBlur stdDeviation="2"/>
      <feComposite in2="hardAlpha" operator="out"/>
      <feColorMatrix type="matrix" values="0 0 0 0 0 0 0 0 0 0 0 0 0 0 0 0 0 0 0.25 0"/>
      <feBlend mode="normal" in2="BackgroundImageFix" result="effect1_dropShadow_2321_521"/>
      <feBlend mode="normal" in="SourceGraphic" in2="effect1_dropShadow_2321_521" result="shape"/>
    </filter>
    <clipPath id="clip0_2321_521">
      <rect width="24" height="24" fill="white" transform="translate(0 0.798462)"/>
    </clipPath>
  </defs>
</svg>