<svg xmlns="http://www.w3.org/2000/svg" width="24" height="25" viewBox="0 0 24 25" fill="none">
  <g clip-path="url(#clip0_2321_523)">
    <g filter="url(#filter0_d_2321_523)">
      <path d="M12.833 11.6315L14.5 18.3285V19.1325L12.833 20.7985H11.167L9.5 19.1315V18.3275L11.167 11.6315H12.833ZM7 8.29846L9.5 10.7985L7.833 14.9655L5.333 12.4655L6.167 10.7985H3.667L2 8.29846H7ZM22 8.29846L20.333 10.7985H17.833L18.667 12.4655L16.167 14.9655L14.5 10.7985L17 8.29846H22ZM13.743 5.79846L14.5 6.63146V7.46546L12.833 9.96546H11.167L9.5 7.46546V6.63146L10.257 5.79846H13.743Z" fill="white"/>
    </g>
  </g>
  <defs>
    <filter id="filter0_d_2321_523" x="-2" y="5.79846" width="28" height="23" filterUnits="userSpaceOnUse" color-interpolation-filters="sRGB">
      <feFlood flood-opacity="0" result="BackgroundImageFix"/>
      <feColorMatrix in="SourceAlpha" type="matrix" values="0 0 0 0 0 0 0 0 0 0 0 0 0 0 0 0 0 0 127 0" result="hardAlpha"/>
      <feOffset dy="4"/>
      <feGaussianBlur stdDeviation="2"/>
      <feComposite in2="hardAlpha" operator="out"/>
      <feColorMatrix type="matrix" values="0 0 0 0 0 0 0 0 0 0 0 0 0 0 0 0 0 0 0.25 0"/>
      <feBlend mode="normal" in2="BackgroundImageFix" result="effect1_dropShadow_2321_523"/>
      <feBlend mode="normal" in="SourceGraphic" in2="effect1_dropShadow_2321_523" result="shape"/>
    </filter>
    <clipPath id="clip0_2321_523">
      <rect width="24" height="24" fill="white" transform="translate(0 0.798462)"/>
    </clipPath>
  </defs>
</svg>